<?xml version="1.0" encoding="UTF-8" standalone="no"?>
<!-- Created with Inkscape (http://www.inkscape.org/) -->

<svg
   xmlns:dc="http://purl.org/dc/elements/1.1/"
   xmlns:cc="http://creativecommons.org/ns#"
   xmlns:rdf="http://www.w3.org/1999/02/22-rdf-syntax-ns#"
   xmlns:svg="http://www.w3.org/2000/svg"
   xmlns="http://www.w3.org/2000/svg"
   xmlns:sodipodi="http://sodipodi.sourceforge.net/DTD/sodipodi-0.dtd"
   xmlns:inkscape="http://www.inkscape.org/namespaces/inkscape"
   width="511.99835"
   height="511.99835"
   id="svg2"
   version="1.1"
   inkscape:version="0.91 r13725"
   sodipodi:docname="sphvr3.svg"
   inkscape:export-filename="/home/bmonkey/workspace/gst/vrsink/data/icon/logos.png"
   inkscape:export-xdpi="90"
   inkscape:export-ydpi="90">
  <defs
     id="defs4" />
  <sodipodi:namedview
     id="base"
     pagecolor="#ffffff"
     bordercolor="#666666"
     borderopacity="1.0"
     inkscape:pageopacity="0"
     inkscape:pageshadow="2"
     inkscape:zoom="1.4"
     inkscape:cx="313.24028"
     inkscape:cy="240.46536"
     inkscape:document-units="px"
     inkscape:current-layer="g4156"
     showgrid="false"
     inkscape:window-width="2560"
     inkscape:window-height="1376"
     inkscape:window-x="1920"
     inkscape:window-y="27"
     inkscape:window-maximized="1"
     fit-margin-top="0"
     fit-margin-left="0"
     fit-margin-right="0"
     fit-margin-bottom="0" />
  <metadata
     id="metadata7">
    <rdf:RDF>
      <cc:Work
         rdf:about="">
        <dc:format>image/svg+xml</dc:format>
        <dc:type
           rdf:resource="http://purl.org/dc/dcmitype/StillImage" />
        <dc:title></dc:title>
      </cc:Work>
    </rdf:RDF>
  </metadata>
  <g
     inkscape:label="Layer 1"
     inkscape:groupmode="layer"
     id="layer1"
     transform="translate(1954.1212,-311.0659)">
    <g
       id="g4156"
       transform="translate(-26.64241,0.21137729)">
      <circle
         r="255.34329"
         cy="566.8537"
         cx="-1671.4796"
         id="path2985-2-4"
         style="fill:#ff9955;fill-opacity:1;stroke:none;stroke-width:47.74197388;stroke-linecap:round;stroke-linejoin:round;stroke-miterlimit:4;stroke-dasharray:none;stroke-opacity:1" />
      <ellipse
         ry="246.27115"
         rx="210.91582"
         id="path2985-2-9"
         style="fill:#000000;fill-opacity:1;stroke:none;stroke-width:47.74197388;stroke-linecap:round;stroke-linejoin:round;stroke-miterlimit:4;stroke-dasharray:none;stroke-opacity:1"
         cx="-1699.766"
         cy="566.8537" />
      <g
         id="flowRoot3755-9"
         style="font-style:normal;font-variant:normal;font-weight:bold;font-stretch:normal;font-size:40px;line-height:125%;font-family:Cantarell;-inkscape-font-specification:'Cantarell Bold';text-align:center;letter-spacing:0px;word-spacing:0px;text-anchor:middle;fill:#ffffff;fill-opacity:1;stroke:none"
         transform="matrix(2.6841739,0,0,2.6841739,-480.51009,-422.0638)">
        <path
           inkscape:connector-curvature="0"
           id="path4164"
           style="fill:#ffffff"
           d="m -505.1841,358.62527 c 2.84,0 4.72,0.64 7,1.52 l 1.64,-4.36 -0.56,-0.2 c -2.52,-0.92 -4.72,-1.48 -8.24,-1.48 -5.56,0 -10.44,2.52 -10.44,7.88 0,5.56 4.44,7.08 8.8,8.4 2.28,0.68 6.44,1.92 6.44,4.16 0,2.72 -3.36,3.68 -6.32,3.68 -2,0 -4.52,-0.56 -7.6,-1.72 l -0.76,-0.32 -1.68,4.28 0.64,0.32 c 3.12,1.2 5.16,1.96 9,1.96 6.28,0 11.64,-2.36 11.64,-8.2 0,-5.52 -4.52,-7.04 -8.88,-8.4 -2.12,-0.64 -6.36,-2 -6.36,-3.96 0,-2.64 2.8,-3.56 5.68,-3.56 z" />
        <path
           inkscape:connector-curvature="0"
           id="path4166"
           style="fill:#ffffff"
           d="m -485.26035,371.58527 c 7.4,0 13.44,-1.48 13.44,-8.72 0,-5.48 -3.84,-8.2 -11.48,-8.2 l -9.16,0 0,27.68 4.92,0 0,-10.76 2.28,0 z m 8.4,-8.52 c 0,3.72 -3.88,4 -8.2,4 l -2.48,0 0,-7.88 3.72,0 c 3.68,0 6.96,0.48 6.96,3.88 z" />
        <path
           inkscape:connector-curvature="0"
           id="path4168"
           style="fill:#ffffff"
           d="m -449.10848,354.66527 0,10.8 -13.36,0 0,-10.8 -4.92,0 0,27.68 4.92,0 0,-12.36 13.36,0 0,12.36 4.92,0 0,-27.68 -4.92,0 z" />
        <path
           inkscape:connector-curvature="0"
           id="path4170"
           style="fill:#ffffff"
           d="m -441.36035,354.66527 10.12,27.68 5.84,0 9.6,-27.68 -5.32,0 -7,22.4 -7.68,-22.4 -5.56,0 z" />
        <path
           inkscape:connector-curvature="0"
           id="path4172"
           style="fill:#ffffff"
           d="m -413.01348,382.34527 4.92,0 0,-10.76 4.48,0 6.4,10.76 5.64,0 -7,-11.56 c 4.12,-1.32 6.2,-4 6.2,-7.92 0,-5.48 -3.8,-8.2 -11.48,-8.2 l -9.16,0 0,27.68 z m 15.6,-19.28 c 0,3.72 -3.88,4 -8.2,4 l -2.48,0 0,-7.88 3.72,0 c 3.72,0 6.96,0.48 6.96,3.88 z" />
      </g>
      <g
         id="flowRoot3755-9-0"
         style="font-style:normal;font-variant:normal;font-weight:bold;font-stretch:normal;font-size:40px;line-height:125%;font-family:Cantarell;-inkscape-font-specification:'Cantarell Bold';text-align:center;letter-spacing:0px;word-spacing:0px;text-anchor:middle;fill:#ffffff;fill-opacity:1;stroke:none"
         transform="matrix(2.6841739,0,0,2.6841739,-947.50865,-620.35033)">
        <flowRoot
           xml:space="preserve"
           id="flowRoot4532"
           style="fill:black;stroke:none;stroke-opacity:1;stroke-width:1px;stroke-linejoin:miter;stroke-linecap:butt;fill-opacity:1;font-family:sans-serif;font-style:normal;font-weight:normal;font-size:40px;line-height:125%;letter-spacing:0px;word-spacing:0px"><flowRegion
             id="flowRegion4534"><rect
               id="rect4536"
               width="721.42859"
               height="738.57141"
               x="-732.85712"
               y="-116.57307" /></flowRegion><flowPara
             id="flowPara4538"></flowPara></flowRoot>      </g>
    </g>
  </g>
</svg>
